<svg width="128" height="128" viewBox="0 0 128 128" fill="none" xmlns="http://www.w3.org/2000/svg">
  <title>Agent Cyber Range</title>
  <defs>
    <linearGradient id="acr-ring" x1="26" y1="22" x2="101" y2="108" gradientUnits="userSpaceOnUse">
      <stop offset="0" stop-color="#0B2B64"/>
      <stop offset="1" stop-color="#071A41"/>
    </linearGradient>
    <linearGradient id="acr-sight" x1="40" y1="43" x2="88" y2="91" gradientUnits="userSpaceOnUse">
      <stop offset="0" stop-color="#1F6BFF"/>
      <stop offset="1" stop-color="#0B43B7"/>
    </linearGradient>
  </defs>
  <path
    d="M95.2 38.4C87.8 27.6 75.4 20.5 61.3 20.5C38.6 20.5 20.2 38.9 20.2 61.6C20.2 84.3 38.6 102.7 61.3 102.7C75.4 102.7 87.8 95.6 95.2 84.8H109.8C101.2 103.2 82.6 116 61.3 116C31.3 116 7 91.7 7 61.6C7 31.6 31.3 7.2 61.3 7.2C82.6 7.2 101.2 20 109.8 38.4H95.2Z"
    fill="url(#acr-ring)"
  />
  <path
    d="M61.3 43.6C51.4 43.6 43.3 51.7 43.3 61.6C43.3 71.5 51.4 79.6 61.3 79.6C71.2 79.6 79.3 71.5 79.3 61.6C79.3 51.7 71.2 43.6 61.3 43.6ZM61.3 55.2C64.8 55.2 67.7 58.1 67.7 61.6C67.7 65.1 64.8 68 61.3 68C57.8 68 54.9 65.1 54.9 61.6C54.9 58.1 57.8 55.2 61.3 55.2Z"
    fill="url(#acr-sight)"
  />
  <path
    d="M61.3 30.4C64.8 30.4 67.7 33.2 67.7 36.8V47.9C67.7 51.4 64.8 54.2 61.3 54.2C57.8 54.2 54.9 51.4 54.9 47.9V36.8C54.9 33.2 57.8 30.4 61.3 30.4Z"
    fill="url(#acr-sight)"
  />
  <path
    d="M61.3 69C64.8 69 67.7 71.8 67.7 75.4V86.5C67.7 90 64.8 92.8 61.3 92.8C57.8 92.8 54.9 90 54.9 86.5V75.4C54.9 71.8 57.8 69 61.3 69Z"
    fill="url(#acr-sight)"
  />
  <path
    d="M30.1 61.6C30.1 58.1 32.9 55.2 36.5 55.2H47.6C51.1 55.2 53.9 58.1 53.9 61.6C53.9 65.1 51.1 68 47.6 68H36.5C32.9 68 30.1 65.1 30.1 61.6Z"
    fill="url(#acr-sight)"
  />
  <path
    d="M68.7 61.6C68.7 58.1 71.5 55.2 75.1 55.2H86.2C89.7 55.2 92.5 58.1 92.5 61.6C92.5 65.1 89.7 68 86.2 68H75.1C71.5 68 68.7 65.1 68.7 61.6Z"
    fill="url(#acr-sight)"
  />
</svg>
